<mxfile host="app.diagrams.net" modified="2022-06-04T11:23:52.836Z" agent="5.0 (Windows NT 10.0; Win64; x64) AppleWebKit/537.36 (KHTML, like Gecko) Chrome/101.0.4951.67 Safari/537.36" etag="eaRIenjdqXBkW1lkqFuI" version="18.2.0" type="github">
  <diagram id="GCp8FoZw6lUCIqxIb2Ry" name="Page-1">
    <mxGraphModel dx="1422" dy="737" grid="1" gridSize="10" guides="1" tooltips="1" connect="1" arrows="1" fold="1" page="1" pageScale="1" pageWidth="850" pageHeight="1100" math="0" shadow="0">
      <root>
        <mxCell id="0" />
        <mxCell id="1" parent="0" />
        <mxCell id="lkzu1t6GzTA8LzSZLWHv-6" value="" style="ellipse;whiteSpace=wrap;html=1;" vertex="1" parent="1">
          <mxGeometry x="80" y="55" width="910" height="650" as="geometry" />
        </mxCell>
        <mxCell id="lkzu1t6GzTA8LzSZLWHv-4" value="" style="ellipse;whiteSpace=wrap;html=1;" vertex="1" parent="1">
          <mxGeometry x="170" y="130" width="690" height="500" as="geometry" />
        </mxCell>
        <mxCell id="lkzu1t6GzTA8LzSZLWHv-1" value="" style="ellipse;whiteSpace=wrap;html=1;" vertex="1" parent="1">
          <mxGeometry x="280" y="240" width="450" height="310" as="geometry" />
        </mxCell>
        <mxCell id="lkzu1t6GzTA8LzSZLWHv-2" value="" style="ellipse;whiteSpace=wrap;html=1;" vertex="1" parent="1">
          <mxGeometry x="445" y="295" width="120" height="80" as="geometry" />
        </mxCell>
        <mxCell id="lkzu1t6GzTA8LzSZLWHv-3" value="The System" style="text;strokeColor=none;fillColor=none;html=1;fontSize=24;fontStyle=1;verticalAlign=middle;align=center;" vertex="1" parent="1">
          <mxGeometry x="455" y="260" width="100" height="40" as="geometry" />
        </mxCell>
        <mxCell id="lkzu1t6GzTA8LzSZLWHv-5" value="The Containing System" style="text;strokeColor=none;fillColor=none;html=1;fontSize=24;fontStyle=1;verticalAlign=middle;align=center;" vertex="1" parent="1">
          <mxGeometry x="465" y="150" width="100" height="40" as="geometry" />
        </mxCell>
        <mxCell id="lkzu1t6GzTA8LzSZLWHv-7" value="The Wider Environment" style="text;strokeColor=none;fillColor=none;html=1;fontSize=24;fontStyle=1;verticalAlign=middle;align=center;" vertex="1" parent="1">
          <mxGeometry x="445" y="80" width="100" height="40" as="geometry" />
        </mxCell>
        <mxCell id="lkzu1t6GzTA8LzSZLWHv-8" value="RealGym" style="text;strokeColor=none;fillColor=none;html=1;fontSize=24;fontStyle=1;verticalAlign=middle;align=center;" vertex="1" parent="1">
          <mxGeometry x="455" y="315" width="100" height="40" as="geometry" />
        </mxCell>
        <mxCell id="lkzu1t6GzTA8LzSZLWHv-9" value="&lt;b&gt;Product Developer&lt;/b&gt;" style="verticalLabelPosition=bottom;html=1;verticalAlign=top;align=center;strokeColor=none;fillColor=#00BEF2;shape=mxgraph.azure.user;" vertex="1" parent="1">
          <mxGeometry x="506.25" y="640" width="38.75" height="40" as="geometry" />
        </mxCell>
        <mxCell id="lkzu1t6GzTA8LzSZLWHv-27" style="edgeStyle=orthogonalEdgeStyle;rounded=0;orthogonalLoop=1;jettySize=auto;html=1;entryX=0.5;entryY=1;entryDx=0;entryDy=0;entryPerimeter=0;strokeColor=#0000FF;" edge="1" parent="1" source="lkzu1t6GzTA8LzSZLWHv-10" target="lkzu1t6GzTA8LzSZLWHv-9">
          <mxGeometry relative="1" as="geometry">
            <Array as="points">
              <mxPoint x="239" y="700" />
              <mxPoint x="526" y="700" />
            </Array>
          </mxGeometry>
        </mxCell>
        <mxCell id="lkzu1t6GzTA8LzSZLWHv-10" value="&lt;b&gt;Domain Expert&lt;/b&gt;" style="verticalLabelPosition=bottom;html=1;verticalAlign=top;align=center;strokeColor=none;fillColor=#00BEF2;shape=mxgraph.azure.user;" vertex="1" parent="1">
          <mxGeometry x="220" y="250" width="38.75" height="40" as="geometry" />
        </mxCell>
        <mxCell id="lkzu1t6GzTA8LzSZLWHv-26" style="edgeStyle=orthogonalEdgeStyle;rounded=0;orthogonalLoop=1;jettySize=auto;html=1;entryX=1;entryY=1;entryDx=0;entryDy=0;entryPerimeter=0;strokeColor=#CC0000;" edge="1" parent="1" source="lkzu1t6GzTA8LzSZLWHv-11" target="lkzu1t6GzTA8LzSZLWHv-9">
          <mxGeometry relative="1" as="geometry" />
        </mxCell>
        <mxCell id="lkzu1t6GzTA8LzSZLWHv-11" value="&lt;b&gt;Hacker (Negative Stakeholder)&lt;/b&gt;" style="verticalLabelPosition=bottom;html=1;verticalAlign=top;align=center;strokeColor=none;fillColor=#CC0000;shape=mxgraph.azure.user;" vertex="1" parent="1">
          <mxGeometry x="821.25" y="200" width="38.75" height="40" as="geometry" />
        </mxCell>
        <mxCell id="lkzu1t6GzTA8LzSZLWHv-12" value="&lt;span&gt;Developer&lt;br&gt;&lt;/span&gt;" style="verticalLabelPosition=bottom;html=1;verticalAlign=top;align=center;strokeColor=none;fillColor=#00BEF2;shape=mxgraph.azure.user;fontStyle=1" vertex="1" parent="1">
          <mxGeometry x="620" y="430" width="38.75" height="40" as="geometry" />
        </mxCell>
        <mxCell id="lkzu1t6GzTA8LzSZLWHv-13" value="&lt;b&gt;End User&lt;/b&gt;" style="verticalLabelPosition=bottom;html=1;verticalAlign=top;align=center;strokeColor=none;fillColor=#00BEF2;shape=mxgraph.azure.user;" vertex="1" parent="1">
          <mxGeometry x="250" y="460" width="38.75" height="40" as="geometry" />
        </mxCell>
        <mxCell id="lkzu1t6GzTA8LzSZLWHv-14" value="&lt;span&gt;Data Science Engineer&lt;br&gt;&lt;br&gt;&lt;/span&gt;" style="verticalLabelPosition=bottom;html=1;verticalAlign=top;align=center;strokeColor=none;fillColor=#00BEF2;shape=mxgraph.azure.user;fontStyle=1" vertex="1" parent="1">
          <mxGeometry x="406" y="430" width="38.75" height="40" as="geometry" />
        </mxCell>
        <mxCell id="lkzu1t6GzTA8LzSZLWHv-15" value="&lt;span&gt;Researcher&lt;br&gt;&lt;/span&gt;" style="verticalLabelPosition=bottom;html=1;verticalAlign=top;align=center;strokeColor=none;fillColor=#00BEF2;shape=mxgraph.azure.user;fontStyle=1" vertex="1" parent="1">
          <mxGeometry x="526.25" y="430" width="38.75" height="40" as="geometry" />
        </mxCell>
        <mxCell id="lkzu1t6GzTA8LzSZLWHv-33" style="edgeStyle=orthogonalEdgeStyle;rounded=0;orthogonalLoop=1;jettySize=auto;html=1;strokeColor=#CC0000;" edge="1" parent="1" source="lkzu1t6GzTA8LzSZLWHv-16">
          <mxGeometry relative="1" as="geometry">
            <mxPoint x="550" y="690" as="targetPoint" />
            <Array as="points">
              <mxPoint x="929" y="760" />
              <mxPoint x="550" y="760" />
            </Array>
          </mxGeometry>
        </mxCell>
        <mxCell id="lkzu1t6GzTA8LzSZLWHv-16" value="&lt;b&gt;Competitor (Negative Stakeholder)&lt;/b&gt;" style="verticalLabelPosition=bottom;html=1;verticalAlign=top;align=center;strokeColor=none;fillColor=#CC0000;shape=mxgraph.azure.user;" vertex="1" parent="1">
          <mxGeometry x="910" y="310" width="38.75" height="40" as="geometry" />
        </mxCell>
        <mxCell id="lkzu1t6GzTA8LzSZLWHv-17" value="&lt;b&gt;Investor&lt;/b&gt;" style="verticalLabelPosition=bottom;html=1;verticalAlign=top;align=center;strokeColor=none;fillColor=#00BEF2;shape=mxgraph.azure.user;" vertex="1" parent="1">
          <mxGeometry x="760" y="350" width="38.75" height="40" as="geometry" />
        </mxCell>
        <mxCell id="lkzu1t6GzTA8LzSZLWHv-32" style="edgeStyle=orthogonalEdgeStyle;rounded=0;orthogonalLoop=1;jettySize=auto;html=1;entryX=0.355;entryY=0.5;entryDx=0;entryDy=0;entryPerimeter=0;strokeColor=#0000FF;" edge="1" parent="1" source="lkzu1t6GzTA8LzSZLWHv-24" target="lkzu1t6GzTA8LzSZLWHv-9">
          <mxGeometry relative="1" as="geometry" />
        </mxCell>
        <mxCell id="lkzu1t6GzTA8LzSZLWHv-24" value="" style="rounded=0;whiteSpace=wrap;html=1;fillColor=none;dashed=1;strokeColor=#0000FF;strokeWidth=2;" vertex="1" parent="1">
          <mxGeometry x="335" y="430" width="405" height="100" as="geometry" />
        </mxCell>
        <mxCell id="lkzu1t6GzTA8LzSZLWHv-28" value="" style="curved=1;endArrow=classic;html=1;rounded=0;strokeColor=#0000FF;entryX=0.5;entryY=1;entryDx=0;entryDy=0;entryPerimeter=0;" edge="1" parent="1" source="lkzu1t6GzTA8LzSZLWHv-13" target="lkzu1t6GzTA8LzSZLWHv-9">
          <mxGeometry width="50" height="50" relative="1" as="geometry">
            <mxPoint x="400" y="570" as="sourcePoint" />
            <mxPoint x="450" y="520" as="targetPoint" />
            <Array as="points">
              <mxPoint x="300" y="680" />
              <mxPoint x="400" y="520" />
            </Array>
          </mxGeometry>
        </mxCell>
        <mxCell id="lkzu1t6GzTA8LzSZLWHv-29" value="&lt;b&gt;Supervisor&lt;/b&gt;" style="verticalLabelPosition=bottom;html=1;verticalAlign=top;align=center;strokeColor=none;fillColor=#00BEF2;shape=mxgraph.azure.user;" vertex="1" parent="1">
          <mxGeometry x="680" y="550" width="38.75" height="40" as="geometry" />
        </mxCell>
        <mxCell id="lkzu1t6GzTA8LzSZLWHv-30" value="" style="curved=1;endArrow=classic;html=1;rounded=0;strokeColor=#0000FF;entryX=0.613;entryY=0.75;entryDx=0;entryDy=0;entryPerimeter=0;" edge="1" parent="1" source="lkzu1t6GzTA8LzSZLWHv-29" target="lkzu1t6GzTA8LzSZLWHv-9">
          <mxGeometry width="50" height="50" relative="1" as="geometry">
            <mxPoint x="590" y="627" as="sourcePoint" />
            <mxPoint x="640" y="577" as="targetPoint" />
            <Array as="points">
              <mxPoint x="640" y="627" />
              <mxPoint x="590" y="577" />
            </Array>
          </mxGeometry>
        </mxCell>
        <mxCell id="lkzu1t6GzTA8LzSZLWHv-31" value="" style="curved=1;endArrow=classic;html=1;rounded=0;strokeColor=#0000FF;exitX=0.5;exitY=1;exitDx=0;exitDy=0;exitPerimeter=0;" edge="1" parent="1" source="lkzu1t6GzTA8LzSZLWHv-17">
          <mxGeometry width="50" height="50" relative="1" as="geometry">
            <mxPoint x="757" y="514" as="sourcePoint" />
            <mxPoint x="540" y="690" as="targetPoint" />
            <Array as="points">
              <mxPoint x="807" y="514" />
              <mxPoint x="757" y="464" />
            </Array>
          </mxGeometry>
        </mxCell>
      </root>
    </mxGraphModel>
  </diagram>
</mxfile>
